STARTFONT 2.1
FONT -WRI-Mathematica5-Medium-R-Normal--19-190-75-75-p-100-Adobe-FontSpecific
SIZE 19 75 75
FONTBOUNDINGBOX 60 40 -3 -15
STARTPROPERTIES 16
FOUNDRY "WRI"
FAMILY_NAME "Mathematica5"
WEIGHT_NAME "Medium"
SLANT "R"
SETWIDTH_NAME "Normal"
PIXEL_SIZE 19
POINT_SIZE 190
RESOLUTION_X 75
RESOLUTION_Y 75
SPACING "p"
AVERAGE_WIDTH 100
CHARSET_REGISTRY "Adobe"
CHARSET_ENCODING "FontSpecific"
FONT_DESCENT 15
FONT_ASCENT 25
DEFAULT_CHAR 32
ENDPROPERTIES
CHARS 228
STARTCHAR Villa
ENCODING 1
SWIDTH 627 0
DWIDTH 12 0
BBX 12 16 0 -3
BITMAP
02c0
05c0
08c0
17e0
2740
7fa0
a550
2f40
2f40
2d40
2940
1fc0
0f00
1f00
1f00
2d00
ENDCHAR
STARTCHAR Kooz
ENCODING 2
SWIDTH 746 0
DWIDTH 14 0
BBX 13 16 1 -3
BITMAP
1000
ef00
3b00
1280
1bc0
2f80
6560
5330
5e08
e1d8
e0c0
6048
6008
6088
2048
0030
ENDCHAR
STARTCHAR Andy
ENCODING 3
SWIDTH 1000 0
DWIDTH 19 0
BBX 15 14 1 0
BITMAP
c000
8080
0080
c080
c0b8
3fc0
f2a0
c7c0
8040
c0c0
0180
8600
c60e
03f0
ENDCHAR
STARTCHAR Spooky
ENCODING 4
SWIDTH 535 0
DWIDTH 10 0
BBX 11 12 0 0
BITMAP
2080
3180
3b80
1d80
1880
7f60
bf00
65e0
7fc0
3500
1180
0100
ENDCHAR
STARTCHAR space
ENCODING 32
SWIDTH 189 0
DWIDTH 4 0
BBX 0 0 0 0
BITMAP
ENDCHAR
STARTCHAR BckspcKey
ENCODING 33
SWIDTH 1981 0
DWIDTH 38 0
BBX 35 14 1 -2
BITMAP
ffffffffe0
8000000020
8000000020
b8649ce320
a694a294a0
a285209420
a486109420
bc860cf420
a286068420
a285028420
be94a284a0
bc649c8320
8000000020
ffffffffe0
ENDCHAR
STARTCHAR HomeKey
ENCODING 34
SWIDTH 1603 0
DWIDTH 30 0
BBX 28 14 1 -2
BITMAP
fffffff0
80000010
80000010
a2721bd0
a28b1a10
a28b1a10
be8b2bd0
a28aaa10
a28aaa10
a28aca10
a2924bd0
80700010
80000010
fffffff0
ENDCHAR
STARTCHAR PgupKey
ENCODING 35
SWIDTH 1444 0
DWIDTH 27 0
BBX 25 14 1 -2
BITMAP
ffffff80
80000080
80000080
80e00080
ad145680
a5145280
a5045280
bd745c80
a1145080
a1145080
a1145080
a0f39080
80000080
ffffff80
ENDCHAR
STARTCHAR PgdwnKey
ENCODING 36
SWIDTH 1999 0
DWIDTH 38 0
BBX 36 14 1 -2
BITMAP
fffffffff0
8000000010
8000000010
9ce7221c50
9494932c50
9314532a50
9304532a50
9d7454a950
91144cc950
91144cc8d0
90b78888d0
80e0000010
8000000010
fffffffff0
ENDCHAR
STARTCHAR EndKey
ENCODING 37
SWIDTH 1187 0
DWIDTH 23 0
BBX 20 14 1 -2
BITMAP
fffff0
800010
800010
bd9790
a19450
a15450
bd5450
a15450
a13450
a13450
bd1790
800010
800010
fffff0
ENDCHAR
STARTCHAR FilledHeart
ENCODING 38
SWIDTH 605 0
DWIDTH 11 0
BBX 10 11 1 0
BITMAP
7380
ffc0
ffc0
ffc0
ffc0
7f80
3f00
3f00
1e00
0c00
0400
ENDCHAR
STARTCHAR Euro
ENCODING 39
SWIDTH 500 0
DWIDTH 9 0
BBX 10 13 0 0
BITMAP
0e00
1180
3080
2080
6000
ff00
6000
fe00
6000
6000
30c0
3100
1e00
ENDCHAR
STARTCHAR CapitalOE
ENCODING 40
SWIDTH 889 0
DWIDTH 17 0
BBX 16 13 1 0
BITMAP
1ffc
3184
6182
6180
c180
c188
c1f8
c188
c188
c180
6181
3186
1ffe
ENDCHAR
STARTCHAR OE
ENCODING 41
SWIDTH 722 0
DWIDTH 14 0
BBX 12 9 1 0
BITMAP
38c0
6560
4230
c3f0
c200
c200
c200
6710
3de0
ENDCHAR
STARTCHAR ABar
ENCODING 42
SWIDTH 444 0
DWIDTH 8 0
BBX 8 11 1 0
BITMAP
fc
00
38
44
c4
c4
1c
64
c4
cc
f7
ENDCHAR
STARTCHAR ACup
ENCODING 43
SWIDTH 444 0
DWIDTH 8 0
BBX 8 13 1 0
BITMAP
42
44
38
00
38
44
c4
0c
34
44
c4
cc
77
ENDCHAR
STARTCHAR CapitalABar
ENCODING 44
SWIDTH 722 0
DWIDTH 14 0
BBX 13 15 0 0
BITMAP
0fc0
0000
0200
0200
0700
0700
0580
0980
09c0
08c0
1fe0
1060
2030
6030
f0f8
ENDCHAR
STARTCHAR CapitalACup
ENCODING 45
SWIDTH 722 0
DWIDTH 14 0
BBX 13 17 0 0
BITMAP
0880
0880
0700
0000
0200
0200
0700
0700
0980
0980
0980
10c0
1fc0
10e0
2060
6070
f0f8
ENDCHAR
STARTCHAR CAcute
ENCODING 46
SWIDTH 444 0
DWIDTH 8 0
BBX 8 13 0 0
BITMAP
06
0c
10
00
3c
46
83
80
80
80
c1
62
3c
ENDCHAR
STARTCHAR CHacek
ENCODING 47
SWIDTH 444 0
DWIDTH 8 0
BBX 8 13 0 0
BITMAP
42
2c
18
00
3c
46
83
80
80
80
c1
62
3c
ENDCHAR
STARTCHAR ScriptZero
ENCODING 48
SWIDTH 440 0
DWIDTH 8 0
BBX 8 13 1 0
BITMAP
0e
12
33
23
63
63
c3
c6
c6
c4
cc
48
70
ENDCHAR
STARTCHAR ScriptOne
ENCODING 49
SWIDTH 440 0
DWIDTH 8 0
BBX 8 13 0 0
BITMAP
03
0e
0a
06
06
04
04
0c
0c
08
08
18
ff
ENDCHAR
STARTCHAR ScriptTwo
ENCODING 50
SWIDTH 440 0
DWIDTH 8 0
BBX 9 13 0 0
BITMAP
0f00
1380
3180
0180
0100
0200
0400
0800
1000
2000
4100
ff00
be00
ENDCHAR
STARTCHAR ScriptThree
ENCODING 51
SWIDTH 519 0
DWIDTH 10 0
BBX 9 13 0 0
BITMAP
0f00
1180
0180
0100
0600
1e00
0700
0300
0300
0200
0200
c400
7800
ENDCHAR
STARTCHAR ScriptFour
ENCODING 52
SWIDTH 519 0
DWIDTH 10 0
BBX 9 13 0 0
BITMAP
0080
0180
0300
0500
0b00
1300
2200
6600
4600
ff80
0c00
0c00
0c00
ENDCHAR
STARTCHAR ScriptFive
ENCODING 53
SWIDTH 519 0
DWIDTH 10 0
BBX 9 13 0 0
BITMAP
0f80
0800
0800
1000
3e00
0300
0100
0100
0100
0100
0200
c400
7800
ENDCHAR
STARTCHAR ScriptSix
ENCODING 54
SWIDTH 519 0
DWIDTH 10 0
BBX 10 13 1 0
BITMAP
01c0
0600
1800
3000
3e00
7300
6100
c100
c100
c100
c200
6600
3800
ENDCHAR
STARTCHAR ScriptSeven
ENCODING 55
SWIDTH 519 0
DWIDTH 10 0
BBX 9 13 2 0
BITMAP
0180
ff80
fd00
0200
0400
0800
0800
1000
2000
6000
c000
c000
c000
ENDCHAR
STARTCHAR ScriptEight
ENCODING 56
SWIDTH 519 0
DWIDTH 10 0
BBX 10 13 0 0
BITMAP
0780
09c0
10c0
1180
1b00
1c00
1600
2700
4300
c300
c300
e400
7800
ENDCHAR
STARTCHAR ScriptNine
ENCODING 57
SWIDTH 519 0
DWIDTH 10 0
BBX 10 13 -1 0
BITMAP
0700
0980
10c0
20c0
20c0
20c0
31c0
1f80
0180
0300
0200
8c00
f000
ENDCHAR
STARTCHAR ODoubleAcute
ENCODING 58
SWIDTH 500 0
DWIDTH 9 0
BBX 9 13 0 0
BITMAP
0900
1b00
2c00
0000
3e00
6300
4380
c180
c180
c180
6100
6300
1c00
ENDCHAR
STARTCHAR CapitalODoubleAcute
ENCODING 59
SWIDTH 722 0
DWIDTH 14 0
BBX 12 17 1 0
BITMAP
0240
0680
0b00
0000
0f00
30c0
6060
6020
c030
c030
c030
c030
c030
6020
6060
30c0
0f00
ENDCHAR
STARTCHAR SHacek
ENCODING 60
SWIDTH 389 0
DWIDTH 7 0
BBX 6 13 1 0
BITMAP
8c
58
30
00
7c
84
c0
70
38
0c
84
84
f8
ENDCHAR
STARTCHAR CapitalSHacek
ENCODING 61
SWIDTH 556 0
DWIDTH 11 0
BBX 8 17 1 0
BITMAP
22
14
18
00
3a
46
c2
c1
e0
78
3c
0e
07
83
83
c6
bc
ENDCHAR
STARTCHAR UDoubleAcute
ENCODING 62
SWIDTH 500 0
DWIDTH 9 0
BBX 9 13 0 0
BITMAP
0900
1b00
2400
0000
e700
6300
6300
6300
6300
6300
6300
6700
3b80
ENDCHAR
STARTCHAR CapitalUDoubleAcute
ENCODING 63
SWIDTH 722 0
DWIDTH 14 0
BBX 14 17 0 0
BITMAP
0120
0340
0580
0000
fc7c
3010
3010
3010
3010
3010
3010
3010
3010
3010
3030
1860
0fc0
ENDCHAR
STARTCHAR HSlash
ENCODING 64
SWIDTH 516 0
DWIDTH 10 0
BBX 10 13 0 0
BITMAP
1c00
0c00
0800
ff00
1800
1380
1480
3d80
3980
3300
6300
62c0
4300
ENDCHAR
STARTCHAR ScriptCapA
ENCODING 65
SWIDTH 870 0
DWIDTH 17 0
BBX 17 12 0 0
BITMAP
01ff00
063600
086600
104600
08c600
03fc00
038c00
010c00
010600
820600
840780
780400
ENDCHAR
STARTCHAR ScriptCapB
ENCODING 66
SWIDTH 718 0
DWIDTH 14 0
BBX 14 13 0 0
BITMAP
07f0
1918
220c
660c
4618
4c60
2fe0
0c38
0818
1818
2010
6060
ff80
ENDCHAR
STARTCHAR ScriptCapC
ENCODING 67
SWIDTH 648 0
DWIDTH 12 0
BBX 12 14 0 -1
BITMAP
03c0
0c60
1030
2030
6020
4000
c000
c000
c000
c040
c040
60c0
7180
1e00
ENDCHAR
STARTCHAR ScriptCapD
ENCODING 68
SWIDTH 860 0
DWIDTH 16 0
BBX 16 14 0 -1
BITMAP
01f0
068c
1906
3306
2203
2603
1603
0603
0403
0c06
0806
100c
f838
1fe0
ENDCHAR
STARTCHAR ScriptCapE
ENCODING 69
SWIDTH 622 0
DWIDTH 12 0
BBX 11 13 0 0
BITMAP
07c0
1860
1060
1800
1800
0700
3800
6020
e020
e020
e020
f040
3f80
ENDCHAR
STARTCHAR ScriptCapF
ENCODING 70
SWIDTH 669 0
DWIDTH 13 0
BBX 16 14 0 -1
BITMAP
0fff
3100
4300
c300
c600
4ff0
0600
0600
0c00
0c00
0c00
1800
1000
e000
ENDCHAR
STARTCHAR ScriptCapG
ENCODING 71
SWIDTH 704 0
DWIDTH 13 0
BBX 13 16 0 -3
BITMAP
00f0
0718
0c08
1818
3000
3000
61f8
6230
6030
6070
60a0
3160
1e40
40c0
e180
3e00
ENDCHAR
STARTCHAR ScriptCapH
ENCODING 72
SWIDTH 876 0
DWIDTH 17 0
BBX 18 14 0 0
BITMAP
0000c0
0f8180
330300
430300
c30200
c20600
46fe00
070600
060400
0c0c00
0c0c00
0c0c00
180e00
300400
ENDCHAR
STARTCHAR ScriptCapI
ENCODING 73
SWIDTH 650 0
DWIDTH 12 0
BBX 12 13 0 0
BITMAP
0ff0
0900
0300
0300
0600
0600
0600
0600
0c00
0c00
0c00
1900
fe00
ENDCHAR
STARTCHAR ScriptCapJ
ENCODING 74
SWIDTH 775 0
DWIDTH 15 0
BBX 17 16 0 -3
BITMAP
00f880
010f80
020c00
041800
0c1800
0e3000
003000
003000
003000
003000
006000
406000
806000
c0c000
e18000
3e0000
ENDCHAR
STARTCHAR ScriptCapK
ENCODING 75
SWIDTH 796 0
DWIDTH 15 0
BBX 18 13 0 0
BITMAP
038380
1d8780
218c40
411800
c32000
c34000
23c000
066000
066000
0c3000
0c3000
0c1800
300c00
ENDCHAR
STARTCHAR ScriptCapL
ENCODING 76
SWIDTH 749 0
DWIDTH 14 0
BBX 14 15 0 -2
BITMAP
0078
008c
0188
0180
0300
0300
0300
0300
0600
0600
0400
2800
fe04
8ff8
00f0
ENDCHAR
STARTCHAR ScriptCapM
ENCODING 77
SWIDTH 1080 0
DWIDTH 21 0
BBX 21 14 0 -1
BITMAP
010010
038030
038060
038060
03c0e0
04c160
04c260
04c460
086860
087860
187060
107060
306078
c04030
ENDCHAR
STARTCHAR ScriptCapN
ENCODING 78
SWIDTH 822 0
DWIDTH 16 0
BBX 17 13 0 0
BITMAP
020180
060300
060200
070600
070400
098400
09c400
08c800
106800
107800
303800
203800
c01000
ENDCHAR
STARTCHAR ScriptCapO
ENCODING 79
SWIDTH 703 0
DWIDTH 13 0
BBX 13 14 0 0
BITMAP
03e0
0270
0c30
1818
3018
6018
6018
c038
c030
c070
c060
60c0
6180
1e00
ENDCHAR
STARTCHAR ScriptCapP
ENCODING 80
SWIDTH 709 0
DWIDTH 13 0
BBX 13 13 0 0
BITMAP
0fc0
3a30
6418
cc18
8c18
8830
58e0
1f00
1000
3000
3000
6000
c000
ENDCHAR
STARTCHAR ScriptCapQ
ENCODING 81
SWIDTH 703 0
DWIDTH 13 0
BBX 13 15 0 -1
BITMAP
03e0
0270
0230
0c18
3818
3018
6018
e018
c038
c030
de70
c3e0
61c0
3ee8
0070
ENDCHAR
STARTCHAR ScriptCapR
ENCODING 82
SWIDTH 680 0
DWIDTH 13 0
BBX 13 13 0 0
BITMAP
0fe0
1230
6418
c430
cc30
4ce0
0b00
0980
19c0
18c0
1060
3070
6038
ENDCHAR
STARTCHAR ScriptCapS
ENCODING 83
SWIDTH 679 0
DWIDTH 13 0
BBX 13 14 0 -1
BITMAP
01e0
0638
0c18
0c18
0e00
0700
03c0
01e0
0070
4030
c030
e020
70c0
3f00
ENDCHAR
STARTCHAR ScriptCapT
ENCODING 84
SWIDTH 678 0
DWIDTH 13 0
BBX 16 13 0 0
BITMAP
1fc1
20be
4100
8300
8300
4600
0600
0600
0c00
0c00
0c00
1800
3000
ENDCHAR
STARTCHAR ScriptCapU
ENCODING 85
SWIDTH 897 0
DWIDTH 17 0
BBX 18 13 0 0
BITMAP
0380c0
1d8180
730300
e30300
c30300
460600
260600
060e00
0c1c00
0c2c00
0ccc00
0f0e00
040c00
ENDCHAR
STARTCHAR ScriptCapV
ENCODING 86
SWIDTH 892 0
DWIDTH 17 0
BBX 17 13 0 0
BITMAP
078380
198180
618100
c18100
c18200
418400
208800
00c800
00d000
00e000
00c000
00c000
008000
ENDCHAR
STARTCHAR ScriptCapW
ENCODING 87
SWIDTH 1202 0
DWIDTH 23 0
BBX 23 13 0 0
BITMAP
00810e
0f8706
318604
61870c
c18708
418710
208b10
00db20
00d340
00e380
00c380
00c300
008200
ENDCHAR
STARTCHAR ScriptCapX
ENCODING 88
SWIDTH 738 0
DWIDTH 14 0
BBX 14 14 0 -1
BITMAP
0e1c
060c
0308
0310
0360
0180
0380
0580
09c0
30c0
60c0
40e0
c070
6030
ENDCHAR
STARTCHAR ScriptCapY
ENCODING 89
SWIDTH 797 0
DWIDTH 15 0
BBX 15 15 0 -1
BITMAP
0006
1c0c
0e0c
0618
0638
0638
0650
06b0
0730
0660
4060
80c0
8080
c300
3c00
ENDCHAR
STARTCHAR ScriptCapZ
ENCODING 90
SWIDTH 865 0
DWIDTH 16 0
BBX 16 15 0 -2
BITMAP
07ff
1ffe
1018
0010
0020
0040
0080
0180
0100
0200
0400
0c00
fc02
07fc
00f8
ENDCHAR
STARTCHAR RightTriangleLeft
ENCODING 91
SWIDTH 600 0
DWIDTH 11 0
BBX 9 13 2 0
BITMAP
0080
0100
0300
0300
0700
0500
0d00
1900
1100
3100
2100
6100
ff00
ENDCHAR
STARTCHAR RightTriangleRight
ENCODING 92
SWIDTH 600 0
DWIDTH 11 0
BBX 8 13 2 0
BITMAP
80
80
c0
c0
e0
a0
b0
98
88
8c
84
86
ff
ENDCHAR
STARTCHAR DoubleRightTriangle
ENCODING 93
SWIDTH 624 0
DWIDTH 12 0
BBX 12 12 0 0
BITMAP
0500
0900
0900
0900
1980
1980
39c0
2940
6960
4920
4920
f9f0
ENDCHAR
STARTCHAR Female
ENCODING 94
SWIDTH 675 0
DWIDTH 13 0
BBX 7 13 3 0
BITMAP
38
44
82
82
82
82
44
38
10
10
7c
10
10
ENDCHAR
STARTCHAR Male
ENCODING 95
SWIDTH 810 0
DWIDTH 15 0
BBX 12 13 2 0
BITMAP
0010
0070
0060
00c0
1c80
6300
4100
8080
8080
8080
c180
6300
3e00
ENDCHAR
STARTCHAR NearlyEquals
ENCODING 96
SWIDTH 644 0
DWIDTH 12 0
BBX 10 13 1 -2
BITMAP
3000
3000
0000
0000
ffc0
0000
0000
0000
ffc0
0000
0000
0300
0300
ENDCHAR
STARTCHAR ScriptA
ENCODING 97
SWIDTH 442 0
DWIDTH 8 0
BBX 8 8 0 0
BITMAP
1e
22
62
42
c4
c4
df
e4
ENDCHAR
STARTCHAR ScriptB
ENCODING 98
SWIDTH 487 0
DWIDTH 9 0
BBX 9 13 0 0
BITMAP
1800
3800
1800
1800
1000
3380
3d80
3180
3180
6300
6200
6400
f800
ENDCHAR
STARTCHAR ScriptC
ENCODING 99
SWIDTH 408 0
DWIDTH 8 0
BBX 8 8 0 0
BITMAP
0f
31
60
c0
c0
c2
e4
78
ENDCHAR
STARTCHAR ScriptD
ENCODING 100
SWIDTH 547 0
DWIDTH 10 0
BBX 10 13 0 0
BITMAP
00c0
0080
0180
0180
0f80
1300
2300
4200
c600
ce00
d600
e700
4400
ENDCHAR
STARTCHAR ScriptE
ENCODING 101
SWIDTH 409 0
DWIDTH 8 0
BBX 8 9 0 0
BITMAP
0e
33
63
4e
f8
c0
c2
c4
78
ENDCHAR
STARTCHAR ScriptF
ENCODING 102
SWIDTH 405 0
DWIDTH 8 0
BBX 11 15 -1 -2
BITMAP
01e0
0220
0400
0c00
1f00
0800
1800
1800
1000
1000
3000
3000
2000
4000
8000
ENDCHAR
STARTCHAR ScriptG
ENCODING 103
SWIDTH 523 0
DWIDTH 10 0
BBX 11 13 -1 -4
BITMAP
03c0
0460
0840
18c0
10c0
3180
3380
3580
3980
0100
0200
c600
f800
ENDCHAR
STARTCHAR ScriptH
ENCODING 104
SWIDTH 486 0
DWIDTH 9 0
BBX 9 13 0 0
BITMAP
3800
1800
1800
1000
3380
3d80
3100
2300
6300
6600
4600
4700
8400
ENDCHAR
STARTCHAR ScriptI
ENCODING 105
SWIDTH 261 0
DWIDTH 5 0
BBX 5 12 0 0
BITMAP
08
10
10
20
f0
20
60
60
40
c0
e0
80
ENDCHAR
STARTCHAR ScriptJ
ENCODING 106
SWIDTH 290 0
DWIDTH 6 0
BBX 8 16 -3 -4
BITMAP
01
02
02
04
0e
06
04
04
0c
0c
08
08
18
10
b0
e0
ENDCHAR
STARTCHAR ScriptK
ENCODING 107
SWIDTH 464 0
DWIDTH 9 0
BBX 9 13 0 0
BITMAP
0c00
3c00
1800
1800
1880
1180
3200
3c00
3c00
2c00
6600
6700
8200
ENDCHAR
STARTCHAR ScriptL
ENCODING 108
SWIDTH 273 0
DWIDTH 5 0
BBX 5 13 0 0
BITMAP
18
78
18
10
30
30
20
20
60
40
40
f0
c0
ENDCHAR
STARTCHAR ScriptM
ENCODING 109
SWIDTH 732 0
DWIDTH 14 0
BBX 14 9 0 0
BITMAP
1000
739c
3dec
3188
2198
6318
4318
4218
8610
ENDCHAR
STARTCHAR ScriptN
ENCODING 110
SWIDTH 476 0
DWIDTH 9 0
BBX 9 9 0 0
BITMAP
3180
7780
3980
3180
2100
6100
6300
4380
8200
ENDCHAR
STARTCHAR ScriptO
ENCODING 111
SWIDTH 438 0
DWIDTH 8 0
BBX 8 8 0 0
BITMAP
0e
31
61
41
c1
c2
e4
78
ENDCHAR
STARTCHAR ScriptP
ENCODING 112
SWIDTH 483 0
DWIDTH 9 0
BBX 9 13 0 -4
BITMAP
1000
7380
3d80
3180
3100
2300
6200
6400
f800
4000
c000
c000
8000
ENDCHAR
STARTCHAR ScriptQ
ENCODING 113
SWIDTH 477 0
DWIDTH 9 0
BBX 9 12 0 -4
BITMAP
0f80
1100
2300
6300
4600
ce00
d200
e600
0600
0600
0400
0800
ENDCHAR
STARTCHAR ScriptR
ENCODING 114
SWIDTH 389 0
DWIDTH 7 0
BBX 7 9 0 0
BITMAP
20
f6
3a
60
60
40
40
40
80
ENDCHAR
STARTCHAR ScriptS
ENCODING 115
SWIDTH 421 0
DWIDTH 8 0
BBX 8 9 0 0
BITMAP
1f
62
62
30
1c
0e
06
84
f8
ENDCHAR
STARTCHAR ScriptT
ENCODING 116
SWIDTH 316 0
DWIDTH 6 0
BBX 6 12 0 0
BITMAP
08
10
30
7c
20
60
60
40
c0
cc
d0
e0
ENDCHAR
STARTCHAR ScriptU
ENCODING 117
SWIDTH 480 0
DWIDTH 9 0
BBX 10 9 0 0
BITMAP
0080
f180
6100
6300
6300
4700
ca00
d2c0
e700
ENDCHAR
STARTCHAR ScriptV
ENCODING 118
SWIDTH 465 0
DWIDTH 9 0
BBX 8 9 0 0
BITMAP
01
e7
62
62
24
24
28
30
20
ENDCHAR
STARTCHAR ScriptW
ENCODING 119
SWIDTH 645 0
DWIDTH 12 0
BBX 13 8 0 0
BITMAP
e338
6310
2730
2720
2b40
3340
2380
4200
ENDCHAR
STARTCHAR ScriptX
ENCODING 120
SWIDTH 549 0
DWIDTH 10 0
BBX 10 9 0 0
BITMAP
19c0
0880
0900
0e00
0c00
1400
2600
4780
e300
ENDCHAR
STARTCHAR ScriptY
ENCODING 121
SWIDTH 494 0
DWIDTH 9 0
BBX 11 13 -1 -4
BITMAP
0020
38c0
1880
1880
1180
3280
3580
3980
3100
0300
0200
8400
f800
ENDCHAR
STARTCHAR ScriptZ
ENCODING 122
SWIDTH 500 0
DWIDTH 9 0
BBX 10 9 0 0
BITMAP
1840
3f80
2100
0200
0400
0800
3000
f040
0f80
ENDCHAR
STARTCHAR ScriptAltL
ENCODING 123
SWIDTH 378 0
DWIDTH 7 0
BBX 7 12 0 0
BITMAP
06
0a
0a
14
14
38
30
20
e0
60
78
60
ENDCHAR
STARTCHAR LogicalNand
ENCODING 124
SWIDTH 611 0
DWIDTH 12 0
BBX 10 13 1 0
BITMAP
7f80
0000
0000
1e00
1200
1100
2100
2100
4080
4080
4080
8040
8040
ENDCHAR
STARTCHAR Nand2
ENCODING 125
SWIDTH 782 0
DWIDTH 15 0
BBX 13 17 1 -3
BITMAP
7ff0
0000
0000
0000
0f80
0880
1040
1040
1040
3060
2020
2020
6030
4010
4010
c018
8008
ENDCHAR
STARTCHAR Nand3
ENCODING 126
SWIDTH 1200 0
DWIDTH 23 0
BBX 21 29 1 -8
BITMAP
7ffff0
000000
000000
000000
000000
000000
01fc00
010400
010400
020600
020200
020200
060300
040100
040100
0c0180
080080
080080
1800c0
100040
100040
300060
300060
200020
600030
600030
400010
c00018
c00018
ENDCHAR
STARTCHAR DEL
ENCODING 127
SWIDTH 189 0
DWIDTH 4 0
BBX 0 0 0 0
BITMAP
ENDCHAR
STARTCHAR LogicalNor
ENCODING 128
SWIDTH 611 0
DWIDTH 12 0
BBX 10 13 1 0
BITMAP
7f80
0000
0000
8040
c0c0
4080
4080
4080
2100
2100
2100
1200
1e00
ENDCHAR
STARTCHAR Nor2
ENCODING 129
SWIDTH 782 0
DWIDTH 15 0
BBX 13 17 1 -3
BITMAP
7ff0
0000
0000
0000
c008
4010
4010
4010
2020
2020
2020
3060
1040
1040
1040
0880
0f80
ENDCHAR
STARTCHAR Nor3
ENCODING 130
SWIDTH 1200 0
DWIDTH 23 0
BBX 21 30 1 -9
BITMAP
7ffff0
000000
000000
000000
000000
000000
c00018
c00018
400010
400010
600030
200020
200020
300060
300040
100040
1800c0
1800c0
080080
080080
0c0180
040100
040100
060300
020200
020200
030600
010400
010400
01fc00
ENDCHAR
STARTCHAR LogicalXor
ENCODING 131
SWIDTH 611 0
DWIDTH 12 0
BBX 10 13 1 0
BITMAP
8040
8040
4080
4080
4080
2100
2100
2100
1200
1e00
0000
0000
7f80
ENDCHAR
STARTCHAR Xor2
ENCODING 132
SWIDTH 782 0
DWIDTH 15 0
BBX 13 17 1 -3
BITMAP
8008
c018
4010
4010
6030
2020
2020
3060
1040
1040
1040
0880
0f80
0000
0000
0000
7ff0
ENDCHAR
STARTCHAR Xor3
ENCODING 133
SWIDTH 1200 0
DWIDTH 23 0
BBX 21 30 1 -9
BITMAP
c00018
c00018
400010
600030
600030
200020
300060
300060
100040
100040
1800c0
080080
080080
0c0180
040100
040100
060300
020200
020200
030200
010400
010400
01fc00
000000
000000
000000
000000
000000
000000
7ffff0
ENDCHAR
STARTCHAR ConstantC
ENCODING 134
SWIDTH 520 0
DWIDTH 10 0
BBX 8 8 1 0
BITMAP
1e
2b
70
a0
e0
e0
e6
78
ENDCHAR
STARTCHAR LongEqual
ENCODING 135
SWIDTH 784 0
DWIDTH 15 0
BBX 12 5 1 2
BITMAP
fff0
0000
0000
0000
fff0
ENDCHAR
STARTCHAR Diffd2
ENCODING 136
SWIDTH 500 0
DWIDTH 9 0
BBX 10 13 0 0
BITMAP
01c0
00c0
00c0
0080
0080
0f80
1980
3100
6100
c300
c200
ce80
7300
ENDCHAR
STARTCHAR Expe2
ENCODING 137
SWIDTH 444 0
DWIDTH 8 0
BBX 7 8 1 0
BITMAP
0e
32
62
6c
f0
c0
c4
78
ENDCHAR
STARTCHAR Imagi2
ENCODING 138
SWIDTH 278 0
DWIDTH 5 0
BBX 4 12 1 0
BITMAP
30
30
00
00
e0
60
40
40
c0
80
a0
c0
ENDCHAR
STARTCHAR Imagj2
ENCODING 139
SWIDTH 278 0
DWIDTH 5 0
BBX 7 16 -2 -4
BITMAP
06
06
00
00
0c
04
0c
0c
08
08
08
08
10
10
d0
e0
ENDCHAR
STARTCHAR CapitalCAcute
ENCODING 140
SWIDTH 667 0
DWIDTH 13 0
BBX 12 17 0 0
BITMAP
08c0
0580
0700
0000
0f90
3870
6030
6010
c000
c000
c000
c000
c000
6000
6010
3860
0f80
ENDCHAR
STARTCHAR CapitalCHacek
ENCODING 141
SWIDTH 667 0
DWIDTH 13 0
BBX 12 17 0 0
BITMAP
08c0
0580
0700
0000
0f90
3870
6030
6010
c000
c000
c000
c000
c000
6000
6010
3860
0f80
ENDCHAR
STARTCHAR EBar
ENCODING 142
SWIDTH 444 0
DWIDTH 8 0
BBX 8 11 0 0
BITMAP
7e
00
3c
46
86
fe
80
80
c1
62
3c
ENDCHAR
STARTCHAR ECup
ENCODING 143
SWIDTH 444 0
DWIDTH 8 0
BBX 8 13 0 0
BITMAP
44
44
38
00
38
4c
86
fe
80
80
c3
46
38
ENDCHAR
STARTCHAR CapitalEBar
ENCODING 144
SWIDTH 611 0
DWIDTH 12 0
BBX 11 15 0 0
BITMAP
1f80
0000
ffc0
3040
3040
3000
3080
3080
3f80
3080
3080
3000
3020
3060
ffc0
ENDCHAR
STARTCHAR CapitalECup
ENCODING 145
SWIDTH 611 0
DWIDTH 12 0
BBX 11 17 0 0
BITMAP
0880
0900
0700
0000
ffc0
3040
3020
3000
3040
3080
3f80
3080
3040
3000
3020
3060
ffc0
ENDCHAR
STARTCHAR ICup
ENCODING 146
SWIDTH 278 0
DWIDTH 5 0
BBX 5 13 0 0
BITMAP
88
90
60
00
e0
60
60
60
60
60
60
60
f0
ENDCHAR
STARTCHAR CapitalICup
ENCODING 147
SWIDTH 333 0
DWIDTH 6 0
BBX 6 17 0 0
BITMAP
84
44
78
00
78
30
30
30
30
30
30
30
30
30
30
30
fc
ENDCHAR
STARTCHAR LSlash
ENCODING 148
SWIDTH 278 0
DWIDTH 5 0
BBX 5 13 0 0
BITMAP
e0
20
20
28
30
20
e0
a0
20
20
20
20
f8
ENDCHAR
STARTCHAR CapitalLSlash
ENCODING 149
SWIDTH 611 0
DWIDTH 12 0
BBX 11 13 0 0
BITMAP
fc00
3000
3000
3000
3200
3400
3800
7000
b000
3000
3020
3060
ffc0
ENDCHAR
STARTCHAR Mercury
ENCODING 150
SWIDTH 402 0
DWIDTH 8 0
BBX 6 13 1 0
BITMAP
84
84
78
48
84
84
84
c8
70
20
fc
20
20
ENDCHAR
STARTCHAR Venus
ENCODING 151
SWIDTH 521 0
DWIDTH 10 0
BBX 9 13 1 0
BITMAP
3e00
6100
c080
8080
8080
8080
4100
6300
1c00
0800
3e00
0800
0800
ENDCHAR
STARTCHAR Earth
ENCODING 152
SWIDTH 535 0
DWIDTH 10 0
BBX 9 13 1 0
BITMAP
0800
0800
3e00
0800
1c00
6300
4100
8080
8080
8080
8180
4300
3e00
ENDCHAR
STARTCHAR Mars
ENCODING 153
SWIDTH 636 0
DWIDTH 12 0
BBX 11 11 1 0
BITMAP
01e0
0060
1ca0
6320
c100
8080
8080
8080
8100
6300
1c00
ENDCHAR
STARTCHAR Jupiter
ENCODING 154
SWIDTH 666 0
DWIDTH 13 0
BBX 11 15 1 -2
BITMAP
0020
1c20
3720
41a0
c0a0
80a0
80a0
00a0
00a0
0120
0220
1c20
ffe0
0020
0020
ENDCHAR
STARTCHAR Saturn
ENCODING 155
SWIDTH 572 0
DWIDTH 11 0
BBX 9 13 1 0
BITMAP
4000
4000
f800
4000
4e00
5180
6080
6080
4080
4100
4100
4300
4100
ENDCHAR
STARTCHAR Uranus
ENCODING 156
SWIDTH 622 0
DWIDTH 12 0
BBX 10 13 1 0
BITMAP
ccc0
4c80
4c80
7f80
4c80
4c80
4c80
4c80
ccc0
0c00
1200
1200
0c00
ENDCHAR
STARTCHAR Neptune
ENCODING 157
SWIDTH 776 0
DWIDTH 15 0
BBX 14 15 1 -2
BITMAP
0700
0f80
0200
7278
aa64
2220
2220
2220
2260
1fc0
0200
0200
1fc0
0200
0200
ENDCHAR
STARTCHAR Pluto
ENCODING 158
SWIDTH 577 0
DWIDTH 11 0
BBX 9 15 1 -2
BITMAP
fe00
8100
8080
8080
8080
8080
8080
8100
fe00
8000
8000
8000
8000
8000
ff80
ENDCHAR
STARTCHAR udieresis
ENCODING 159
SWIDTH 756 0
DWIDTH 14 0
BBX 13 13 1 0
BITMAP
0f80
30c0
6020
4010
8018
8008
8608
8608
8008
4010
4030
3060
0f80
ENDCHAR
STARTCHAR dagger
ENCODING 160
SWIDTH 380 0
DWIDTH 7 0
BBX 6 9 1 0
BITMAP
84
88
98
b8
f8
b8
98
88
84
ENDCHAR
STARTCHAR LastPage
ENCODING 161
SWIDTH 380 0
DWIDTH 7 0
BBX 5 9 1 0
BITMAP
88
88
c8
e8
f8
e8
c8
88
88
ENDCHAR
STARTCHAR SolidLeftTriangle
ENCODING 162
SWIDTH 634 0
DWIDTH 12 0
BBX 10 10 1 0
BITMAP
0040
01c0
07c0
1fc0
7fc0
ffc0
1fc0
07c0
01c0
0040
ENDCHAR
STARTCHAR SolidRightTriangle
ENCODING 163
SWIDTH 634 0
DWIDTH 12 0
BBX 10 10 1 0
BITMAP
8000
e000
f800
fe00
ff80
ffc0
fe00
f800
e000
8000
ENDCHAR
STARTCHAR QuarterNote
ENCODING 164
SWIDTH 400 0
DWIDTH 8 0
BBX 6 14 1 0
BITMAP
04
04
04
04
04
04
04
04
04
04
04
74
fc
78
ENDCHAR
STARTCHAR EigthNote
ENCODING 165
SWIDTH 619 0
DWIDTH 12 0
BBX 11 14 1 0
BITMAP
0400
0700
0580
0440
0420
0400
0400
0400
0400
0400
0400
7400
fc00
7800
ENDCHAR
STARTCHAR BeamedEighthNote
ENCODING 166
SWIDTH 905 0
DWIDTH 17 0
BBX 15 14 1 0
BITMAP
07fe
0402
0402
0402
0402
0402
0402
0402
0402
0402
0402
747a
fc7e
787c
ENDCHAR
STARTCHAR BeamedSixteenthNote
ENCODING 167
SWIDTH 905 0
DWIDTH 17 0
BBX 15 14 1 0
BITMAP
07fe
0402
0402
07fe
0402
0402
0402
0402
0402
0402
0402
747a
fc7e
787c
ENDCHAR
STARTCHAR EntityStart
ENCODING 168
SWIDTH 778 0
DWIDTH 15 0
BBX 12 14 1 -2
BITMAP
fff0
8040
8040
8c40
9240
9240
9440
9b40
9940
a640
bec0
8040
8040
fff0
ENDCHAR
STARTCHAR EntityEnd
ENCODING 169
SWIDTH 778 0
DWIDTH 15 0
BBX 13 14 1 -2
BITMAP
fff8
1008
1008
1008
1008
1008
1108
1008
1008
1008
1108
1108
1008
fff8
ENDCHAR
STARTCHAR trademark
ENCODING 170
SWIDTH 674 0
DWIDTH 13 0
BBX 10 11 3 2
BITMAP
0040
0080
0180
0300
0200
0400
8c00
c800
7800
7000
2000
ENDCHAR
STARTCHAR acute
ENCODING 171
SWIDTH 674 0
DWIDTH 13 0
BBX 13 13 1 0
BITMAP
0008
0010
0020
ffe0
80e0
80a0
8120
b320
9a20
9e20
8c20
8020
ffe0
ENDCHAR
STARTCHAR dieresis
ENCODING 172
SWIDTH 364 0
DWIDTH 7 0
BBX 6 7 1 7
BITMAP
f8
a4
20
20
20
20
70
ENDCHAR
STARTCHAR notequal
ENCODING 173
SWIDTH 364 0
DWIDTH 7 0
BBX 6 6 0 7
BITMAP
10
94
78
78
94
10
ENDCHAR
STARTCHAR AE
ENCODING 174
SWIDTH 429 0
DWIDTH 8 0
BBX 6 6 1 7
BITMAP
ec
44
7c
44
44
ec
ENDCHAR
STARTCHAR Oslash
ENCODING 175
SWIDTH 552 0
DWIDTH 10 0
BBX 5 12 4 0
BITMAP
08
10
20
60
40
40
c0
c0
c0
c0
c0
c0
ENDCHAR
STARTCHAR infinity
ENCODING 176
SWIDTH 552 0
DWIDTH 10 0
BBX 5 14 1 -2
BITMAP
18
18
18
10
30
20
40
c0
20
30
10
18
18
18
ENDCHAR
STARTCHAR plusminus
ENCODING 177
SWIDTH 552 0
DWIDTH 10 0
BBX 5 13 4 0
BITMAP
c0
c0
c0
c0
c0
c0
40
40
60
20
20
10
08
ENDCHAR
STARTCHAR lessequal
ENCODING 178
SWIDTH 552 0
DWIDTH 10 0
BBX 2 6 4 0
BITMAP
c0
c0
c0
c0
c0
c0
ENDCHAR
STARTCHAR greaterequal
ENCODING 179
SWIDTH 328 0
DWIDTH 6 0
BBX 4 16 1 -3
BITMAP
30
40
40
40
40
40
40
80
80
40
40
40
40
40
40
20
ENDCHAR
STARTCHAR yen
ENCODING 180
SWIDTH 344 0
DWIDTH 7 0
BBX 4 24 1 -7
BITMAP
10
20
40
40
40
40
40
40
40
40
40
80
80
40
40
40
40
40
40
40
40
40
20
10
ENDCHAR
STARTCHAR mu
ENCODING 181
SWIDTH 446 0
DWIDTH 8 0
BBX 6 32 1 -11
BITMAP
04
18
10
20
20
20
20
20
20
20
20
20
20
20
40
c0
c0
40
20
20
20
20
20
20
20
20
20
20
20
10
18
04
ENDCHAR
STARTCHAR partialdiff
ENCODING 182
SWIDTH 562 0
DWIDTH 11 0
BBX 9 40 1 -15
BITMAP
0180
0200
0400
0c00
0c00
1800
1800
1800
1800
1800
1800
1800
1800
1800
1800
1800
1800
3000
2000
4000
c000
2000
3000
1800
1800
1800
1800
1800
1800
1800
1800
1800
1800
1800
1800
0c00
0c00
0400
0200
0180
ENDCHAR
STARTCHAR summation
ENCODING 183
SWIDTH 822 0
DWIDTH 16 0
BBX 13 9 1 0
BITMAP
1000
3000
6000
4000
fdc8
4000
6000
3000
1000
ENDCHAR
STARTCHAR product
ENCODING 184
SWIDTH 533 0
DWIDTH 10 0
BBX 8 13 1 0
BITMAP
10
38
56
93
10
10
00
10
10
10
00
10
10
ENDCHAR
STARTCHAR pi
ENCODING 185
SWIDTH 822 0
DWIDTH 16 0
BBX 13 9 1 0
BITMAP
0040
0060
0030
0010
9df8
0010
0030
0060
0040
ENDCHAR
STARTCHAR integral
ENCODING 186
SWIDTH 533 0
DWIDTH 10 0
BBX 8 13 1 0
BITMAP
08
08
00
08
08
08
00
08
08
c9
6a
1c
08
ENDCHAR
STARTCHAR ordfeminine
ENCODING 187
SWIDTH 900 0
DWIDTH 17 0
BBX 15 7 1 1
BITMAP
fffe
8002
a10a
a10a
8002
8002
fffe
ENDCHAR
STARTCHAR ordmasculine
ENCODING 188
SWIDTH 900 0
DWIDTH 17 0
BBX 7 14 5 -2
BITMAP
fe
82
8a
8a
82
82
8a
8a
82
82
8a
8a
82
fe
ENDCHAR
STARTCHAR Omega
ENCODING 189
SWIDTH 900 0
DWIDTH 17 0
BBX 15 14 1 -2
BITMAP
f000
8800
8400
da00
6980
30c0
19e0
0f90
0708
0394
01fa
00e2
0072
001e
ENDCHAR
STARTCHAR ae
ENCODING 190
SWIDTH 364 0
DWIDTH 7 0
BBX 5 7 1 6
BITMAP
20
20
f8
20
20
20
20
ENDCHAR
STARTCHAR oslash
ENCODING 191
SWIDTH 189 0
DWIDTH 4 0
BBX 0 0 0 0
BITMAP
ENDCHAR
STARTCHAR questiondown
ENCODING 192
SWIDTH 189 0
DWIDTH 4 0
BBX 0 0 0 0
BITMAP
ENDCHAR
STARTCHAR exclamdown
ENCODING 193
SWIDTH 189 0
DWIDTH 4 0
BBX 0 0 0 0
BITMAP
ENDCHAR
STARTCHAR logicalnot
ENCODING 194
SWIDTH 189 0
DWIDTH 4 0
BBX 0 0 0 0
BITMAP
ENDCHAR
STARTCHAR radical
ENCODING 195
SWIDTH 189 0
DWIDTH 4 0
BBX 0 0 0 0
BITMAP
ENDCHAR
STARTCHAR florin
ENCODING 196
SWIDTH 189 0
DWIDTH 4 0
BBX 0 0 0 0
BITMAP
ENDCHAR
STARTCHAR approxequal
ENCODING 197
SWIDTH 189 0
DWIDTH 4 0
BBX 0 0 0 0
BITMAP
ENDCHAR
STARTCHAR Delta
ENCODING 198
SWIDTH 189 0
DWIDTH 4 0
BBX 0 0 0 0
BITMAP
ENDCHAR
STARTCHAR guillemotleft
ENCODING 199
SWIDTH 189 0
DWIDTH 4 0
BBX 0 0 0 0
BITMAP
ENDCHAR
STARTCHAR guillemotright
ENCODING 200
SWIDTH 189 0
DWIDTH 4 0
BBX 0 0 0 0
BITMAP
ENDCHAR
STARTCHAR ellipsis
ENCODING 201
SWIDTH 189 0
DWIDTH 4 0
BBX 0 0 0 0
BITMAP
ENDCHAR
STARTCHAR nbspace
ENCODING 202
SWIDTH 189 0
DWIDTH 4 0
BBX 0 0 0 0
BITMAP
ENDCHAR
STARTCHAR Agrave
ENCODING 203
SWIDTH 189 0
DWIDTH 4 0
BBX 0 0 0 0
BITMAP
ENDCHAR
STARTCHAR Atilde
ENCODING 204
SWIDTH 189 0
DWIDTH 4 0
BBX 0 0 0 0
BITMAP
ENDCHAR
STARTCHAR Otilde
ENCODING 205
SWIDTH 189 0
DWIDTH 4 0
BBX 0 0 0 0
BITMAP
ENDCHAR
STARTCHAR parenright
ENCODING 206
SWIDTH 189 0
DWIDTH 4 0
BBX 0 0 0 0
BITMAP
ENDCHAR
STARTCHAR oe
ENCODING 207
SWIDTH 189 0
DWIDTH 4 0
BBX 0 0 0 0
BITMAP
ENDCHAR
STARTCHAR endash
ENCODING 208
SWIDTH 189 0
DWIDTH 4 0
BBX 0 0 0 0
BITMAP
ENDCHAR
STARTCHAR emdash
ENCODING 209
SWIDTH 189 0
DWIDTH 4 0
BBX 0 0 0 0
BITMAP
ENDCHAR
STARTCHAR quotedblleft
ENCODING 210
SWIDTH 189 0
DWIDTH 4 0
BBX 0 0 0 0
BITMAP
ENDCHAR
STARTCHAR quotedblright
ENCODING 211
SWIDTH 189 0
DWIDTH 4 0
BBX 0 0 0 0
BITMAP
ENDCHAR
STARTCHAR quoteleft
ENCODING 212
SWIDTH 189 0
DWIDTH 4 0
BBX 0 0 0 0
BITMAP
ENDCHAR
STARTCHAR quoteright
ENCODING 213
SWIDTH 189 0
DWIDTH 4 0
BBX 0 0 0 0
BITMAP
ENDCHAR
STARTCHAR divide
ENCODING 214
SWIDTH 189 0
DWIDTH 4 0
BBX 0 0 0 0
BITMAP
ENDCHAR
STARTCHAR lozenge
ENCODING 215
SWIDTH 189 0
DWIDTH 4 0
BBX 0 0 0 0
BITMAP
ENDCHAR
STARTCHAR ydieresis
ENCODING 216
SWIDTH 189 0
DWIDTH 4 0
BBX 0 0 0 0
BITMAP
ENDCHAR
STARTCHAR Ydieresis
ENCODING 217
SWIDTH 189 0
DWIDTH 4 0
BBX 0 0 0 0
BITMAP
ENDCHAR
STARTCHAR fraction
ENCODING 218
SWIDTH 189 0
DWIDTH 4 0
BBX 0 0 0 0
BITMAP
ENDCHAR
STARTCHAR currency
ENCODING 219
SWIDTH 189 0
DWIDTH 4 0
BBX 0 0 0 0
BITMAP
ENDCHAR
STARTCHAR guilsinglleft
ENCODING 220
SWIDTH 189 0
DWIDTH 4 0
BBX 0 0 0 0
BITMAP
ENDCHAR
STARTCHAR guilsinglright
ENCODING 221
SWIDTH 189 0
DWIDTH 4 0
BBX 0 0 0 0
BITMAP
ENDCHAR
STARTCHAR fi
ENCODING 222
SWIDTH 189 0
DWIDTH 4 0
BBX 0 0 0 0
BITMAP
ENDCHAR
STARTCHAR fl
ENCODING 223
SWIDTH 189 0
DWIDTH 4 0
BBX 0 0 0 0
BITMAP
ENDCHAR
STARTCHAR daggerdbl
ENCODING 224
SWIDTH 189 0
DWIDTH 4 0
BBX 0 0 0 0
BITMAP
ENDCHAR
STARTCHAR periodcentered
ENCODING 225
SWIDTH 189 0
DWIDTH 4 0
BBX 0 0 0 0
BITMAP
ENDCHAR
STARTCHAR quotesinglbase
ENCODING 226
SWIDTH 189 0
DWIDTH 4 0
BBX 0 0 0 0
BITMAP
ENDCHAR
STARTCHAR quotedblbase
ENCODING 227
SWIDTH 189 0
DWIDTH 4 0
BBX 0 0 0 0
BITMAP
ENDCHAR
STARTCHAR perthousand
ENCODING 228
SWIDTH 189 0
DWIDTH 4 0
BBX 0 0 0 0
BITMAP
ENDCHAR
STARTCHAR Acircumflex
ENCODING 229
SWIDTH 189 0
DWIDTH 4 0
BBX 0 0 0 0
BITMAP
ENDCHAR
STARTCHAR Ecircumflex
ENCODING 230
SWIDTH 189 0
DWIDTH 4 0
BBX 0 0 0 0
BITMAP
ENDCHAR
STARTCHAR Aacute
ENCODING 231
SWIDTH 189 0
DWIDTH 4 0
BBX 0 0 0 0
BITMAP
ENDCHAR
STARTCHAR Edieresis
ENCODING 232
SWIDTH 189 0
DWIDTH 4 0
BBX 0 0 0 0
BITMAP
ENDCHAR
STARTCHAR Egrave
ENCODING 233
SWIDTH 189 0
DWIDTH 4 0
BBX 0 0 0 0
BITMAP
ENDCHAR
STARTCHAR Iacute
ENCODING 234
SWIDTH 189 0
DWIDTH 4 0
BBX 0 0 0 0
BITMAP
ENDCHAR
STARTCHAR Icircumflex
ENCODING 235
SWIDTH 189 0
DWIDTH 4 0
BBX 0 0 0 0
BITMAP
ENDCHAR
STARTCHAR Idieresis
ENCODING 236
SWIDTH 189 0
DWIDTH 4 0
BBX 0 0 0 0
BITMAP
ENDCHAR
STARTCHAR Igrave
ENCODING 237
SWIDTH 189 0
DWIDTH 4 0
BBX 0 0 0 0
BITMAP
ENDCHAR
STARTCHAR Oacute
ENCODING 238
SWIDTH 189 0
DWIDTH 4 0
BBX 0 0 0 0
BITMAP
ENDCHAR
STARTCHAR Ocircumflex
ENCODING 239
SWIDTH 189 0
DWIDTH 4 0
BBX 0 0 0 0
BITMAP
ENDCHAR
STARTCHAR apple
ENCODING 240
SWIDTH 189 0
DWIDTH 4 0
BBX 0 0 0 0
BITMAP
ENDCHAR
STARTCHAR Ograve
ENCODING 241
SWIDTH 189 0
DWIDTH 4 0
BBX 0 0 0 0
BITMAP
ENDCHAR
STARTCHAR Uacute
ENCODING 242
SWIDTH 189 0
DWIDTH 4 0
BBX 0 0 0 0
BITMAP
ENDCHAR
STARTCHAR Ucircumflex
ENCODING 243
SWIDTH 189 0
DWIDTH 4 0
BBX 0 0 0 0
BITMAP
ENDCHAR
STARTCHAR Ugrave
ENCODING 244
SWIDTH 189 0
DWIDTH 4 0
BBX 0 0 0 0
BITMAP
ENDCHAR
STARTCHAR dotlessi
ENCODING 245
SWIDTH 189 0
DWIDTH 4 0
BBX 0 0 0 0
BITMAP
ENDCHAR
STARTCHAR circumflex
ENCODING 246
SWIDTH 189 0
DWIDTH 4 0
BBX 0 0 0 0
BITMAP
ENDCHAR
STARTCHAR CurlyQuote
ENCODING 247
SWIDTH 336 0
DWIDTH 6 0
BBX 3 5 2 8
BITMAP
e0
e0
20
40
40
ENDCHAR
STARTCHAR CurlyDblQuote
ENCODING 248
SWIDTH 444 0
DWIDTH 8 0
BBX 7 5 1 8
BITMAP
ee
ee
22
44
44
ENDCHAR
STARTCHAR CurlyBackQuote
ENCODING 249
SWIDTH 336 0
DWIDTH 6 0
BBX 3 5 2 8
BITMAP
20
40
80
e0
e0
ENDCHAR
STARTCHAR CurlyDblBackQuote
ENCODING 250
SWIDTH 444 0
DWIDTH 8 0
BBX 8 5 0 8
BITMAP
21
42
84
e7
e7
ENDCHAR
STARTCHAR StrikeCircle
ENCODING 251
SWIDTH 600 0
DWIDTH 11 0
BBX 11 11 0 0
BITMAP
1f00
2080
4040
8020
8020
8020
8020
8020
4040
2080
1f00
ENDCHAR
STARTCHAR StrikeSquare
ENCODING 252
SWIDTH 600 0
DWIDTH 11 0
BBX 11 10 0 0
BITMAP
ffe0
8020
8020
8020
8020
8020
8020
8020
8020
ffe0
ENDCHAR
STARTCHAR StrikeTriangle
ENCODING 253
SWIDTH 600 0
DWIDTH 11 0
BBX 10 10 1 0
BITMAP
0400
0c00
0a00
1200
1100
2100
2080
4080
4040
ffc0
ENDCHAR
STARTCHAR MathLogo1
ENCODING 254
SWIDTH 2776 0
DWIDTH 53 0
BBX 53 13 0 0
BITMAP
1e078000000000
06060000000000
060e043fdefbf8
0e0e0444482108
0a160c04082100
0a160e04082100
13261604086120
132612081fe1e0
13443e08104320
21846308104200
21844308104208
210c830810c210
f11fe7bc79eff0
ENDCHAR
STARTCHAR MathLogo2
ENCODING 255
SWIDTH 2981 0
DWIDTH 57 0
BBX 57 11 0 0
BITMAP
1c0e10ff7c702500
0c181111318c6b80
0c183110a3046b00
0c3838102204a600
145858102201a000
1658483064012000
1690f8206401f000
2290882044023000
23110c20440a1000
42320c2042341800
e27f9ef1f3ee7c00
ENDCHAR
ENDFONT
